<svg xmlns="http://www.w3.org/2000/svg" viewBox="0 0 500 500">
  <defs>
    <style>.cls-1{fill:#114680;}.cls-2{fill:#1a6da8;}.cls-3{fill:#fff;}</style>
  </defs>
  <path class="cls-1" d="M250,50A200,200,0,1,1,50,250,200,200,0,0,1,250,50Z"/>
  <path class="cls-2" d="M250,450A200,200,0,1,1,450,250,200,200,0,0,1,250,450Z"/>
  <path class="cls-3" d="M250,150a100,100,0,1,1-100,100,100,100,0,0,1,100-100Z"/>
  <path class="cls-3" d="M350,250a100,100,0,1,1-100,100,100,100,0,0,1,100-100Z"/>
  <path class="cls-3" d="M150,250a100,100,0,1,1-100,100,100,100,0,0,1,100-100Z"/>
  <path class="cls-1" d="M250,250a50,50,0,1,1-50,50,50,50,0,0,1,50-50Z"/>
</svg>